Patient4_TMGait_0pt7_01_right_44_EMG.mot
version=1
nRows=23
nColumns=33
inDegrees=no
endheader
time	1LAddLong	2LGlutMax	3LGlutMed	4LIliopsoas	5LSemiMemb	6LBicFemLong	7LRecFem	8LVastMed	9LVastLat	10LGasMed	11LTibAnt	12lTibPost	13LPeroneusLong	14LSol	15LExtDigLong	16LFlexDigLong	17RAddLong	18RGlutMax	19RGlutMed	20RIliopsoas	21RSemiMemb	22RBicFemLong	23RRecFem	24RVastMed	25RVastLat	26RGasMed	27RTibAnt	28RTibPost	29RPeroneusLong	30RSol	31RExtDigLong	32RFlexDigLong
50.43	0.007324	-0.16037	0.038605	0.006409	-0.012665	0.23575	0.042267	0.001373	0.04364	-0.34058	-0.014038	0.058899	0.004578	-0.3714	0.10376	0.000153	0.04425	0.019226	0.52216	-0.035858	-0.011139	0.018311	0.049133	-0.12924	-0.036469	0.006256	0.1593	-0.004578	-0.037079	0.019226	-0.007629	-0.002594
50.431	0.00351	-0.10834	-0.00061	0.016632	-0.003967	-0.48828	0.084381	-0.00824	0.081024	0.23666	0.006714	0.2214	0.019989	-0.25391	0.072784	0.00824	0.007629	-0.026093	0.22873	0.063324	0.002441	0.017548	0.091095	-0.17227	-0.036163	0.003967	0.088959	-0.007019	-0.061493	0.047607	0.000153	0.002136
50.432	0.011597	-0.10071	0	0.003052	0.010223	-0.63812	0.10757	-0.00412	0.028229	0.61554	-0.0737	0.27618	-0.032349	0.16846	0.035706	-0.13733	-0.03479	0.037384	0.14252	0.04776	0.014954	0.019989	0.13825	-0.18692	-0.02243	0.005035	0.088654	-0.010529	0.071259	0.025635	0.000153	0.008392
50.433	0.002289	-0.069885	-0.02594	0.003357	0.066071	-0.37506	0.077667	0.003815	0.015411	0.10284	-0.10071	0.15732	0.015564	0.242	0.074158	-0.34607	-0.059204	0.035248	0.28442	0.019684	0.011444	0.040131	0.17059	-0.16342	-0.029449	0.007782	0.16434	-0.00946	0.10788	-0.037384	-0.000458	0.00061
50.434	0.005951	-0.04776	-0.034485	-0.004883	0.059967	-0.002441	0.058441	0.020447	-0.008698	-0.98114	-0.056152	0.18768	0.061188	0.019836	0.030365	0.21637	-0.05661	0.095367	0.46432	0.073853	0.036011	0.034332	0.19898	-0.14145	-0.033569	0.00946	0.33661	-0.009155	-0.19562	-0.013733	0.006866	-0.002136
50.435	0.006104	-0.046692	-0.048523	0.010223	0.032043	0.11139	0.03891	0.009003	0.006104	-0.60623	-0.031128	0.00412	0.034485	0.2533	-0.036316	0.26215	-0.052948	0.066833	0.32623	0.13229	0.061951	0.038757	0.17853	-0.090332	-0.030212	0.009613	0.43381	-0.006561	-0.38971	0.037842	0.000305	-0.002594
50.436	0.000763	-0.009918	0.013275	-0.008698	0.010529	-0.018463	-0.006409	0.014343	0.004578	0.11871	-0.020905	0.48996	0.068512	0.53085	-0.046387	0.551	-0.048218	0.11993	-0.047607	0.15442	0.072784	0.040588	0.19959	-0.06134	-0.02121	0.00412	0.44098	-0.010223	-0.18387	0.05661	0.000305	-0.00061
50.437	0.00824	-0.027008	0.082397	-0.005798	0	0.044403	0.02182	0.008698	0.059814	-0.28412	-0.032654	-0.22659	0.099792	-0.41321	0.026093	0.45807	-0.038452	0.060883	0.39093	0.01236	0.066223	0.056458	0.17792	-0.054169	-0.02594	-0.001373	0.23743	-0.006561	0.033875	-0.002747	-0.001526	-0.006256
50.438	0.004578	-0.014801	0.21927	0.004425	-0.024109	0.089417	0.12711	0.005493	0.10483	0.08255	0.006409	-0.082092	0.070801	-1.6794	0.054016	0.25528	-0.024109	0.097504	0.47852	-0.23239	0.052185	0.054016	0.082245	-0.028229	-0.028534	-0.000763	-0.19302	-0.006866	0.068665	-0.048676	-0.001221	-0.003052
50.439	0.002289	-0.031281	0.086365	-0.003662	-0.018768	0.020752	0.13229	0.012512	0.014191	0.401	0.067749	0.02655	-0.057526	-1.353	0.028076	0.08606	-0.017395	0.0177	0.32394	-0.37643	0.040131	0.02121	0.004272	-0.036469	-0.043945	-0.002441	-0.21668	-0.007019	-0.000458	-0.026093	-0.000916	0.004425
50.44	0.010223	0.007019	0.10864	0.013123	0.021362	-0.029449	0.05249	0.005188	-0.065308	0.40222	0.077515	-0.005493	-0.096741	-1.0696	0.015564	-0.056763	-0.007019	0.059052	0.023804	-0.37048	0.049591	-0.006409	-0.031586	-0.041656	-0.035248	0.001373	-0.16052	-0.00824	-0.04837	-0.044403	-0.002594	-0.001526
50.441	0.006104	-0.009308	0.072784	0.009308	0.018768	-0.009766	0.048218	0.009003	-0.10681	0.51849	-0.003204	-0.049438	-0.078735	-1.0052	0.069122	-0.13443	-0.007935	0.027618	-0.25986	-0.062714	0.017395	-0.004425	-0.066833	-0.12955	-0.02594	0.001984	-0.12711	-0.006561	0.10132	-0.085449	0.002594	0.005035
50.442	-0.004883	-0.03952	0.12909	0.00412	-0.004883	-0.007477	0.070343	0.004425	-0.10971	-0.044403	0.049286	-0.030365	-0.075378	-0.6987	0.084839	-0.25497	-0.019836	0.033875	-0.099335	0.19562	-0.014343	0.024719	-0.048523	-0.10468	-0.019379	0.001526	-0.075836	-0.003204	0.23468	-0.10178	0.000916	0.007629
50.443	-0.003967	-0.038605	0.077362	0.010376	-0.02121	-0.016785	0.018158	0.011444	-0.088196	-0.43304	0.14572	-0.004883	-0.0737	-0.079346	0.062256	-0.10712	-0.015411	0.058441	0.17593	0.16235	-0.006561	0.032043	-0.070496	-0.063477	-0.010529	-0.001526	0.017242	-0.002136	0.10986	-0.079498	-0.00351	0.007935
50.444	-0.007019	-0.036926	0.066223	0.003815	-0.038147	-0.061493	-0.046997	0.010071	0.035553	-0.30945	0.16007	-0.005188	-0.010223	0.074768	0.12344	-0.12543	0.005951	0.025482	0.49515	0.068512	0.018616	0.036163	-0.15335	-0.099335	-0.020752	-0.002136	0.018616	-0.002899	-0.040436	-0.038452	-0.002441	0.008392
50.445	0.005035	-0.046387	0.025177	0.005035	-0.025024	-0.083923	-0.067139	0.005798	0.14358	0.013733	0.1294	0.00351	0.068817	-0.088196	0.068665	-0.083313	0.021973	0.004578	0.67047	0.024719	0.027008	0.012054	-0.12528	-0.052032	-0.030823	-0.008545	0.14801	-0.007935	-0.040283	-0.030975	0.001526	0.003967
50.446	0.004578	-0.048981	-0.029144	-0.005951	-0.000153	-0.103	0.037689	-0.004425	0.1799	-0.11078	0.00351	0.002747	0.058441	0.18219	0.17746	-0.05188	0.070953	-0.021667	0.68924	0.043793	-0.026703	-0.007629	-0.12543	-0.078583	-0.020599	0.002899	0.13702	-0.009918	-0.097198	-0.040283	-0.001221	-0.006866
50.447	0.012665	-0.043488	0.000305	0.01358	-0.017853	-0.001678	0.093231	-0.010071	0.15976	-0.26276	0.038147	0.012665	-0.062866	0.26321	0.17151	-0.031891	0.10239	-0.002289	0.37888	0.053711	-0.078735	-0.020447	-0.1178	-0.10849	-0.028839	-0.002441	0.076141	-0.008545	-0.16434	-0.048218	0.00412	-0.003815
50.448	0.019836	-0.023499	-0.002747	0.011749	-0.039673	0.11414	0.079956	-0.000153	0.13062	-0.17441	0.20508	0.011292	-0.15488	0.32303	0.021515	-0.068512	0.073547	-0.000153	0.40527	-0.022125	-0.091553	-0.04364	-0.068512	-0.1181	-0.028381	-0.010071	0.14252	-0.013123	-0.25497	-0.027466	-0.005341	-0.005341
50.449	0.01358	-0.044861	0.000763	0.003662	0.027771	0.23544	0.03006	-0.002747	0.11673	-0.11566	0.23392	0.015564	-0.13458	0.39642	0.19638	-0.042267	0.030212	-0.027008	0.09079	-0.08255	-0.058289	-0.049286	-0.048676	-0.12543	-0.013123	-0.010376	0.15503	-0.007172	-0.37781	0.004272	-0.00061	-0.001221
50.45	0.008545	-0.040436	-0.012665	-0.002441	0.059052	0.13718	0.037689	-0.002136	0.10513	-0.13825	-0.003204	0.022278	-0.079041	0.57327	0.14755	-0.031128	0.033112	0.049591	-0.19547	-0.029144	0.11612	-0.02655	-0.054169	-0.10956	-0.02243	-0.005951	0.077972	-0.007477	-0.035858	0.020294	-0.001221	-0.000153
50.451	-0.003052	-0.074921	0.014954	-0.002136	0.033875	0.12894	0.062561	-0.006256	0.077515	-0.11932	-0.08255	0.022736	-0.094299	0.52734	0.33783	-0.034332	-0.01236	0.059357	-0.18265	0.022888	0.20493	-0.016022	-0.082397	-0.12375	-0.03067	-0.005493	0.094757	-0.008698	-0.029449	-0.018768	0.000153	-0.003662
50.452	0.038757	-0.061798	0.002136	0.010223	0.018616	0.27786	0.058746	0.009918	0.054932	-0.066223	-0.20874	0.025177	-0.061646	0.38391	0.76004	-0.002594	-0.039673	0.05661	0.010834	0.10376	0.060577	0.052948	-0.034332	-0.088959	-0.003357	-0.001068	0.18478	-0.002899	0.020905	-0.06073	-0.000153	-0.009613
